<?xml version="1.0" standalone="no"?>
<!DOCTYPE svg PUBLIC "-//W3C//DTD SVG 20010904//EN"
 "http://www.w3.org/TR/2001/REC-SVG-20010904/DTD/svg10.dtd">
<svg version="1.0" xmlns="http://www.w3.org/2000/svg"
 width="260.000000pt" height="260.000000pt" viewBox="0 0 260.000000 260.000000"
 preserveAspectRatio="xMidYMid meet">
<metadata>
Created by potrace 1.11, written by Peter Selinger 2001-2013
</metadata>
<g transform="translate(0.000000,260.000000) scale(0.100000,-0.100000)"
fill="#000000" stroke="none">
<path d="M1495 2590 c-4 -6 -11 -8 -16 -5 -5 4 -9 1 -9 -4 0 -6 -4 -11 -10
-11 -5 0 -39 -13 -75 -30 -36 -16 -70 -30 -75 -30 -13 0 -50 -37 -50 -50 0 -5
-11 -34 -24 -65 -14 -30 -22 -55 -19 -55 3 0 0 -7 -7 -15 -7 -8 -10 -15 -7
-15 3 0 -7 -31 -22 -69 -16 -37 -41 -104 -56 -147 -15 -44 -32 -85 -38 -91 -5
-7 -7 -13 -4 -13 3 0 -8 -33 -24 -72 -16 -40 -32 -82 -34 -93 -2 -11 -4 -22
-5 -25 -2 -3 -2 -8 -1 -12 0 -5 -4 -8 -11 -8 -6 0 -8 -3 -5 -7 4 -3 2 -12 -4
-20 -6 -7 -8 -13 -4 -13 4 0 3 -6 -2 -12 -6 -7 -18 -38 -28 -68 -10 -30 -24
-70 -32 -87 -7 -18 -13 -35 -14 -38 0 -2 -12 -33 -25 -67 -14 -35 -27 -70 -29
-78 -2 -8 -18 -53 -35 -100 -30 -81 -35 -95 -39 -112 -1 -4 -9 -25 -18 -45
-21 -52 -30 -77 -32 -86 0 -4 -7 -20 -15 -36 -15 -28 -16 -150 -2 -211 7 -27
16 -103 21 -160 2 -19 4 -35 4 -35 1 0 4 -29 6 -65 1 -36 6 -83 9 -105 3 -22
8 -69 10 -103 3 -35 7 -66 10 -69 3 -3 1 -13 -4 -23 -5 -10 -6 -21 -2 -24 4
-4 8 -29 9 -54 3 -80 8 -142 12 -142 2 0 29 27 60 60 32 33 63 60 70 60 7 0
10 4 7 9 -4 5 -2 11 3 13 9 3 114 94 167 146 19 17 36 32 38 32 3 0 20 15 39
33 72 66 98 87 109 87 13 0 95 65 119 95 10 11 28 33 42 49 14 16 35 57 48 90
12 34 26 72 32 86 5 14 11 33 12 43 1 11 8 23 16 28 8 5 11 9 7 9 -6 0 11 58
39 130 4 8 7 17 8 20 1 3 7 19 14 35 7 17 14 35 15 40 5 17 26 69 34 85 5 8 8
23 6 33 -1 9 2 17 7 17 5 0 9 7 9 16 0 8 5 25 12 37 7 12 13 27 14 32 3 14 47
134 89 245 20 52 38 102 40 112 2 9 11 30 19 47 9 17 14 31 12 31 -3 0 4 21
15 46 11 26 17 49 14 52 -3 3 2 13 11 23 8 9 16 26 17 38 1 11 5 21 9 21 4 0
7 3 6 8 0 4 2 14 5 22 20 46 45 129 40 134 -4 3 -1 6 5 6 27 0 18 100 -11 121
-4 3 -7 10 -6 15 1 5 -4 23 -11 39 -7 17 -14 35 -15 40 -2 6 -4 17 -6 25 -2 8
-6 17 -9 20 -3 3 -10 18 -15 34 -7 19 -25 37 -52 52 -24 12 -43 20 -43 17 0
-4 -9 2 -21 13 -12 10 -23 18 -25 16 -2 -1 -29 9 -59 23 -31 14 -60 25 -65 25
-6 0 -10 5 -10 12 0 6 -3 9 -6 5 -4 -3 -19 0 -35 9 -16 8 -31 14 -34 14 -3 0
-18 6 -35 15 -34 18 -47 19 -55 5z"/>
</g>
</svg>
